<?xml version="1.0" encoding="UTF-8"?>
<svg width="32px" height="32px" viewBox="0 0 32 32" version="1.1" xmlns="http://www.w3.org/2000/svg" xmlns:xlink="http://www.w3.org/1999/xlink">
    <title>google</title>
    <g id="页面-1" stroke="none" stroke-width="1" fill="none" fill-rule="evenodd">
        <g id="google" fill-rule="nonzero">
            <path d="M27,16.2444 C27,15.3399 26.9251,14.6799 26.763,13.9955 L16.2245,13.9955 L16.2245,18.0777 L22.4104,18.0777 C22.2857,19.0921 21.6122,20.6199 20.1156,21.6465 L20.0946,21.7832 L23.4267,24.3129 L23.6576,24.3355 C25.7777,22.4166 27,19.5932 27,16.2444 Z" id="路径" fill="#4285F4"></path>
            <path d="M16.2244,27 C19.255,27 21.7992,26.0221 23.6575,24.3355 L20.1156,21.6466 C19.1677,22.2944 17.8956,22.7466 16.2244,22.7466 C13.2562,22.7466 10.737,20.8278 9.83891,18.1755 L9.70727,18.1865 L6.24252,20.8143 L6.1972,20.9377 C8.04299,24.531 11.8344,27 16.2244,27 Z" id="路径" fill="#34A853"></path>
            <path d="M9.83895,18.1756 C9.60199,17.4911 9.46486,16.7577 9.46486,16 C9.46486,15.2422 9.60199,14.5089 9.82648,13.8244 L9.82021,13.6787 L6.31203,11.0087 L6.19725,11.0622 C5.43651,12.5533 5,14.2278 5,16 C5,17.7722 5.43651,19.4466 6.19725,20.9377 L9.83895,18.1756 Z" id="路径" fill="#FBBC05"></path>
            <path d="M16.2244,9.2533 C18.3321,9.2533 19.7539,10.1455 20.5645,10.8911 L23.7323,7.86 C21.7868,6.08778 19.255,5 16.2244,5 C11.8344,5 8.04299,7.46887 6.1972,11.0622 L9.82644,13.8244 C10.737,11.1722 13.2562,9.2533 16.2244,9.2533 Z" id="路径" fill="#EB4335"></path>
        </g>
    </g>
</svg>