<?xml version="1.0" encoding="UTF-8"?>
<svg width="22px" height="22px" viewBox="0 0 22 22" version="1.1" xmlns="http://www.w3.org/2000/svg" xmlns:xlink="http://www.w3.org/1999/xlink">
    <title>画板</title>
    <g id="画板" stroke="none" stroke-width="1" fill="none" fill-rule="evenodd">
        <g id="openai" transform="translate(2.6667, 2.6666)" fill="#111827" fill-rule="nonzero">
            <path d="M7.44962165,4.40490922e-05 C5.60175165,4.40490922e-05 3.96013165,1.17363882 3.38804165,2.90676882 C2.19999165,3.14829882 1.17433165,3.88210882 0.573311647,4.92198882 C-0.353428353,6.50207882 -0.141568353,8.48868882 1.09967165,9.84298882 C0.716101647,10.9777888 0.847691647,12.2185888 1.45991165,13.2464888 C2.38105165,14.8321888 4.23451165,15.6452888 6.04785165,15.2672888 C6.85140165,16.1614888 8.00585165,16.6712888 9.21725165,16.6667197 C11.0650516,16.6667197 12.7067516,15.4930888 13.2797516,13.7599888 C14.4696516,13.5175888 15.4934516,12.7837888 16.0888516,11.7456888 C17.0212516,10.1655888 16.8093516,8.17896882 15.5681516,6.82381882 L15.5681516,6.81827882 C15.9516516,5.68345882 15.8200516,4.44168882 15.2078516,3.40918882 C14.2867516,1.82908882 12.4332516,1.01599882 10.6255516,1.39396882 C9.81735165,0.501588816 8.66105165,-0.00544118362 7.44962165,4.40490922e-05 Z M7.44962165,1.08329882 L7.44402165,1.08882882 C8.18783165,1.08882882 8.90275165,1.34233882 9.47485165,1.81157882 C9.45145165,1.82263882 9.40575165,1.85121882 9.37215165,1.86780882 L6.00772165,3.78162882 C5.83600165,3.87749882 5.73334165,4.05818882 5.73334165,4.25546882 L5.73334165,8.74778882 L4.28584119,7.92360882 L4.28584119,4.21029882 C4.28491165,2.48546882 5.70068165,1.08605882 7.44962165,1.08329882 Z M11.5018516,2.39143453 C12.6367516,2.38958882 13.6857516,2.98604882 14.2522516,3.95677882 C14.6180516,4.58918882 14.7552516,5.32852882 14.6292516,6.04482882 C14.6059516,6.02823882 14.5611516,6.00518882 14.5321516,5.98859882 L11.1686516,4.06924882 C10.9969516,3.97337882 10.7860516,3.97337882 10.6143516,4.06924882 L6.67221165,6.31585882 L6.67221165,4.66754882 L9.92655165,2.81088882 C10.4052516,2.53708882 10.9484516,2.39235882 11.5018516,2.39143453 Z M3.18179165,4.09690882 L3.18179165,8.04160882 C3.18179165,8.23889882 3.28445165,8.41408882 3.45617165,8.51548882 L7.39176165,10.7555888 L5.93866165,11.5852888 L2.68902165,9.73418882 C1.17713165,8.86948882 0.660101647,6.96024882 1.53364165,5.46773882 C1.90415165,4.83532882 2.48651165,4.35041882 3.18179165,4.09690882 Z M10.7216516,5.07409882 L13.9768516,6.92521882 C15.4934516,7.78901882 16.0076516,9.69638882 15.1322516,11.1916888 L15.1378516,11.1971888 C14.7664516,11.8295888 14.1822516,12.3144888 13.4906516,12.5633888 L13.4906516,8.61778882 C13.4906516,8.42048882 13.3879516,8.23981882 13.2162516,8.14393882 L9.27505165,5.89732882 L10.7216516,5.07409882 Z M8.33062165,6.43385882 L9.98995165,7.38154882 L9.98995165,9.27228882 L8.33062165,10.2199888 L6.67128165,9.27228882 L6.67128165,7.38154882 L8.33062165,6.43385882 Z M10.9391516,7.92360882 L12.3866516,8.74778882 L12.3866516,12.4555888 C12.3866516,14.1821888 10.9680516,15.5825888 9.22285165,15.5825888 L9.22285165,15.5769888 C8.48465165,15.5769888 7.76413165,15.3225888 7.19764165,14.8542888 C7.22097165,14.8431888 7.27230165,14.8145888 7.30030165,14.7980888 L10.6637516,12.8851888 C10.8355516,12.7892888 10.9437516,12.6085888 10.9381516,12.4112888 L10.9391516,7.92360882 Z M9.99465165,10.3508888 L9.99465165,11.9991888 L6.73940165,13.8503888 C5.22284165,14.7085888 3.29005165,14.2006888 2.41464165,12.7099888 L2.42024165,12.7099888 C2.04880165,12.0830888 1.91628165,11.3382888 2.04227165,10.6219888 C2.06560165,10.6384888 2.11133165,10.6615888 2.13933165,10.6781888 L5.50283165,12.5974888 C5.67455165,12.6933888 5.88546165,12.6933888 6.05719165,12.5974888 L9.99465165,10.3508888 Z" id="形状"></path>
        </g>
    </g>
</svg>
